<?xml version="1.0" encoding="UTF-8" standalone="no"?>
<!-- Created with Inkscape (http://www.inkscape.org/) -->
<svg
   xmlns:svg="http://www.w3.org/2000/svg"
   xmlns="http://www.w3.org/2000/svg"
   version="1.0"
   width="956.69287"
   height="412.79526"
   id="svg2">
  <defs
     id="defs4" />
  <g
     transform="translate(705.94556,586.20484)"
     id="layer1">
    <g
       transform="translate(35.433046,35.494998)"
       id="g2917">
      <path
         d="M -630.70397,-550.19831 L -630.70397,-477.15779 L -702.94637,-280.53326 L -630.70397,-280.53326 L -630.70397,-247.39877 L 104.63963,-247.39877 L 104.63963,-320.42682 L 176.88203,-517.05136 L 104.63963,-517.05136 L 104.63963,-550.19831 L -630.70397,-550.19831 z"
         id="path2400"
         style="fill:#003476;fill-opacity:1;fill-rule:nonzero;stroke:none" />
      <path
         d="M -630.70397,-550.19831 L -630.70397,-477.15779 L -702.94637,-280.53326 L -630.70397,-280.53326 L -630.70397,-247.39877 L 104.63963,-247.39877 L 104.63963,-320.42682 L 176.88203,-517.05136 L 104.63963,-517.05136 L 104.63963,-550.19831 L -630.70397,-550.19831 z"
         id="path2412"
         style="fill:none;stroke:#ffffff;stroke-width:5.99837637;stroke-linecap:butt;stroke-linejoin:miter;stroke-miterlimit:3.86400008;stroke-dasharray:none;stroke-opacity:1" />
      <path
         d="M 85.0625,45.78125 L 85.0625,47.25 L 85.0625,110.3125 L 17.6875,294.03125 L 16.9375,296.03125 L 19.0625,296.03125 L 85.0625,296.03125 L 85.0625,327.59375 L 85.0625,329.09375 L 86.5625,329.09375 L 118.34375,329.09375 L 119.8125,329.09375 L 119.8125,327.59375 L 119.8125,269.21875 L 119.8125,267.71875 L 118.34375,267.71875 L 65.21875,267.71875 L 119.75,111.625 L 119.8125,111.375 L 119.8125,111.125 L 119.8125,47.25 L 119.8125,45.78125 L 118.34375,45.78125 L 86.5625,45.78125 L 85.0625,45.78125 z"
         transform="translate(-705.94556,-586.20484)"
         id="path2424"
         style="fill:#ffd500;fill-opacity:1;fill-rule:nonzero;stroke:none" />
      <path
         d="M 152.9375,117.375 L 152.625,118.40625 L 109.125,253.34375 L 108.5,255.28125 L 110.53125,255.28125 L 137.3125,255.28125 L 138.375,255.28125 L 138.71875,254.25 L 157.8125,195 L 212.8125,195 L 193.90625,253.34375 L 193.25,255.28125 L 195.3125,255.28125 L 222.0625,255.28125 L 223.15625,255.28125 L 223.46875,254.25 L 267,119.3125 L 267.625,117.375 L 265.5625,117.375 L 238.8125,117.375 L 237.71875,117.375 L 237.40625,118.40625 L 219.875,172.46875 L 165.09375,172.46875 L 182.21875,119.3125 L 182.84375,117.375 L 180.8125,117.375 L 154.03125,117.375 L 152.9375,117.375 z M 317.15625,125.625 L 316.71875,126.34375 L 267.625,208.96875 L 266.3125,211.21875 L 268.90625,211.21875 L 292.34375,211.21875 L 293.1875,211.21875 L 293.625,210.5 L 305.65625,190.1875 L 368.65625,190.375 L 366.71875,209.59375 L 366.5625,211.21875 L 368.1875,211.21875 L 388.28125,211.21875 L 389.625,211.21875 L 389.75,209.875 L 398.09375,127.25 L 398.28125,125.625 L 396.625,125.625 L 318,125.625 L 317.15625,125.625 z M 439.03125,125.625 L 438.71875,126.6875 L 433.125,144.84375 L 432.53125,146.78125 L 434.5625,146.78125 L 489.625,146.78125 L 418.5,191.5 L 418.03125,191.8125 L 417.875,192.3125 L 412.5,209.28125 L 411.90625,211.21875 L 413.9375,211.21875 L 513.1875,211.21875 L 514.28125,211.21875 L 514.59375,210.1875 L 519.96875,193.21875 L 520.59375,191.28125 L 518.5625,191.28125 L 463.59375,191.1875 L 534.5625,146.15625 L 535.03125,145.84375 L 535.1875,145.34375 L 540.8125,127.5625 L 541.4375,125.625 L 539.40625,125.625 L 440.125,125.625 L 439.03125,125.625 z M 568.4375,125.625 L 568.09375,126.65625 L 541.875,209.28125 L 541.28125,211.21875 L 543.3125,211.21875 L 631.40625,211.21875 L 632.53125,211.21875 L 632.84375,210.15625 L 637.875,193.0625 L 638.4375,191.1875 L 636.4375,191.1875 L 574.875,191.1875 L 579.03125,177.78125 L 623.625,177.625 L 624.6875,177.625 L 625.03125,176.59375 L 630.03125,161.15625 L 630.65625,159.21875 L 628.625,159.21875 L 584.6875,159.3125 L 588.46875,146.78125 L 651.5,146.78125 L 652.5625,146.78125 L 652.90625,145.78125 L 659.03125,127.59375 L 659.6875,125.625 L 657.625,125.625 L 569.5,125.625 L 568.4375,125.625 z M 681.0625,125.625 L 680.75,126.6875 L 675.1875,144.84375 L 674.59375,146.78125 L 676.59375,146.78125 L 709.6875,146.78125 L 689.125,209.25 L 688.46875,211.21875 L 690.53125,211.21875 L 712.28125,211.21875 L 713.34375,211.21875 L 713.6875,210.21875 L 735.09375,146.78125 L 768.0625,146.78125 L 769.15625,146.78125 L 769.46875,145.71875 L 775.03125,127.53125 L 775.625,125.625 L 773.625,125.625 L 682.15625,125.625 L 681.0625,125.625 z M 330.5625,146.78125 L 372.6875,146.78125 L 370.1875,170.78125 L 317.1875,170.78125 L 330.5625,146.78125 z M 254.5,236.875 L 254.125,237.875 L 248.5625,253.28125 L 247.84375,255.28125 L 249.96875,255.28125 L 732.90625,255.28125 L 733.96875,255.28125 L 734.3125,254.28125 L 739.90625,238.875 L 740.625,236.875 L 738.5,236.875 L 255.53125,236.875 L 254.5,236.875 z"
         transform="translate(-705.94556,-586.20484)"
         id="path2432"
         style="fill:#ffd500;fill-opacity:1;fill-rule:nonzero;stroke:none" />
      <path
         d="M 765.4375,45.75 L 765.4375,47.25 L 765.4375,105.625 L 765.4375,107.125 L 766.9375,107.125 L 820.0625,107.125 L 765.53125,263.21875 L 765.4375,263.46875 L 765.4375,263.71875 L 765.4375,327.59375 L 765.4375,329.09375 L 766.9375,329.09375 L 798.71875,329.09375 L 800.21875,329.09375 L 800.21875,327.59375 L 800.21875,264.5 L 867.59375,80.8125 L 868.3125,78.8125 L 866.1875,78.8125 L 800.21875,78.8125 L 800.21875,47.25 L 800.21875,45.75 L 798.71875,45.75 L 766.9375,45.75 L 765.4375,45.75 z"
         transform="translate(-705.94556,-586.20484)"
         id="path2472"
         style="fill:#ffd500;fill-opacity:1;fill-rule:nonzero;stroke:none" />
      <path
         d="M 123.25969,-558.99391 C 123.25969,-572.98596 134.74514,-584.32177 148.91179,-584.32177 C 163.07843,-584.32177 174.56389,-572.98596 174.56389,-558.99391 C 174.56389,-545.00185 163.07843,-533.65357 148.91179,-533.65357 C 134.74514,-533.65357 123.25969,-545.00185 123.25969,-558.99391 z"
         id="path2488"
         style="fill:none;stroke:#003476;stroke-width:3.76613235;stroke-linecap:butt;stroke-linejoin:miter;stroke-miterlimit:3.86400008;stroke-dasharray:none;stroke-opacity:1" />
      <path
         d="M 151.78861,-570.74873 C 154.3825,-570.74873 158.38558,-570.08778 157.81193,-564.62564 C 157.36299,-560.48539 154.59451,-559.73716 151.83849,-559.73716 L 141.35069,-559.73716 L 141.35069,-570.74873 L 151.78861,-570.74873 z M 137.16055,-542.29073 L 141.35069,-542.29073 L 141.35069,-556.08326 L 152.01308,-556.08326 C 158.84699,-556.08326 156.96393,-550.13476 157.32558,-546.34369 C 157.46275,-545.1091 157.63734,-543.78721 158.26087,-542.29073 L 163.29901,-542.29073 L 163.29901,-543.33827 C 161.82748,-544.39827 161.65289,-545.89475 161.56559,-549.9477 C 161.4783,-555.23526 161.11665,-556.08326 157.77452,-558.14091 C 160.97947,-560.52281 162.27642,-562.01928 162.05195,-566.20942 C 161.65289,-573.4798 156.73946,-574.40262 151.70132,-574.40262 L 137.16055,-574.40262 L 137.16055,-542.29073 z"
         id="path2492"
         style="fill:#003476;fill-opacity:1;fill-rule:nonzero;stroke:none" />
    </g>
  </g>
</svg>
